<mxfile host="app.diagrams.net" agent="Mozilla/5.0 (Windows NT 10.0; Win64; x64) AppleWebKit/537.36 (KHTML, like Gecko) Chrome/134.0.0.0 YaBrowser/25.4.0.0 Safari/537.36" version="27.0.9">
  <diagram name="Логическая модель" id="EOc2jAA3Ew3FcaRW2oMH">
    <mxGraphModel dx="1426" dy="788" grid="1" gridSize="10" guides="1" tooltips="1" connect="1" arrows="1" fold="1" page="1" pageScale="1" pageWidth="1169" pageHeight="827" math="0" shadow="0">
      <root>
        <mxCell id="0" />
        <mxCell id="1" parent="0" />
        <mxCell id="c3WTYRBBogg5OO0L-fVW-19" style="edgeStyle=orthogonalEdgeStyle;rounded=1;orthogonalLoop=1;jettySize=auto;html=1;exitX=1.005;exitY=0.401;exitDx=0;exitDy=0;exitPerimeter=0;entryX=0.002;entryY=0.427;entryDx=0;entryDy=0;curved=1;strokeWidth=2;entryPerimeter=0;" edge="1" parent="1" source="c3WTYRBBogg5OO0L-fVW-1" target="c3WTYRBBogg5OO0L-fVW-10">
          <mxGeometry relative="1" as="geometry">
            <Array as="points">
              <mxPoint x="650" y="407" />
              <mxPoint x="650" y="390" />
              <mxPoint x="790" y="390" />
              <mxPoint x="790" y="407" />
            </Array>
          </mxGeometry>
        </mxCell>
        <mxCell id="c3WTYRBBogg5OO0L-fVW-1" value="Начисление зарплаты" style="shape=mxgraph.bpmn.data2;labelPosition=center;verticalLabelPosition=bottom;align=center;verticalAlign=top;size=15;html=1;fillColor=#dae8fc;strokeColor=#6c8ebf;strokeWidth=2;" vertex="1" parent="1">
          <mxGeometry x="552" y="376" width="65" height="76" as="geometry" />
        </mxCell>
        <mxCell id="c3WTYRBBogg5OO0L-fVW-2" value="Регистр сведений&lt;div&gt;&quot;Сведения о сотрудниках&quot;&lt;/div&gt;" style="shape=datastore;html=1;labelPosition=center;verticalLabelPosition=bottom;align=center;verticalAlign=top;fillColor=#dae8fc;strokeColor=#6c8ebf;strokeWidth=2;" vertex="1" parent="1">
          <mxGeometry x="822.5" y="170" width="100" height="100" as="geometry" />
        </mxCell>
        <mxCell id="c3WTYRBBogg5OO0L-fVW-3" value="Приказ об увольнении" style="shape=mxgraph.bpmn.data2;labelPosition=center;verticalLabelPosition=bottom;align=center;verticalAlign=top;size=15;html=1;fillColor=#dae8fc;strokeColor=#6c8ebf;strokeWidth=2;" vertex="1" parent="1">
          <mxGeometry x="1020" y="40" width="65" height="76" as="geometry" />
        </mxCell>
        <mxCell id="c3WTYRBBogg5OO0L-fVW-4" value="Приказ о найме" style="shape=mxgraph.bpmn.data2;labelPosition=center;verticalLabelPosition=bottom;align=center;verticalAlign=top;size=15;html=1;fillColor=#dae8fc;strokeColor=#6c8ebf;strokeWidth=2;" vertex="1" parent="1">
          <mxGeometry x="660" y="40" width="65" height="76" as="geometry" />
        </mxCell>
        <mxCell id="c3WTYRBBogg5OO0L-fVW-10" value="Регистр расчета&lt;div&gt;&quot;Основные начисления&quot;&lt;/div&gt;" style="shape=datastore;html=1;labelPosition=center;verticalLabelPosition=bottom;align=center;verticalAlign=top;fillColor=#dae8fc;strokeColor=#6c8ebf;strokeWidth=2;" vertex="1" parent="1">
          <mxGeometry x="822.5" y="364" width="100" height="100" as="geometry" />
        </mxCell>
        <mxCell id="c3WTYRBBogg5OO0L-fVW-21" style="edgeStyle=orthogonalEdgeStyle;rounded=0;orthogonalLoop=1;jettySize=auto;html=1;exitX=0;exitY=0.7;exitDx=0;exitDy=0;entryX=0.995;entryY=0.772;entryDx=0;entryDy=0;entryPerimeter=0;curved=1;strokeWidth=2;" edge="1" parent="1" source="c3WTYRBBogg5OO0L-fVW-10" target="c3WTYRBBogg5OO0L-fVW-1">
          <mxGeometry relative="1" as="geometry">
            <Array as="points">
              <mxPoint x="790" y="434" />
              <mxPoint x="790" y="450" />
              <mxPoint x="650" y="450" />
              <mxPoint x="650" y="435" />
            </Array>
          </mxGeometry>
        </mxCell>
        <mxCell id="c3WTYRBBogg5OO0L-fVW-22" value="Регистр расчета&lt;div&gt;&quot;Дополнительные начисления&quot;&lt;/div&gt;" style="shape=datastore;html=1;labelPosition=center;verticalLabelPosition=bottom;align=center;verticalAlign=top;fillColor=#dae8fc;strokeColor=#6c8ebf;strokeWidth=2;" vertex="1" parent="1">
          <mxGeometry x="252.5" y="364" width="100" height="100" as="geometry" />
        </mxCell>
        <mxCell id="c3WTYRBBogg5OO0L-fVW-26" style="edgeStyle=orthogonalEdgeStyle;rounded=0;orthogonalLoop=1;jettySize=auto;html=1;exitX=0.001;exitY=0.395;exitDx=0;exitDy=0;exitPerimeter=0;entryX=1.004;entryY=0.428;entryDx=0;entryDy=0;entryPerimeter=0;curved=1;strokeWidth=2;" edge="1" parent="1" source="c3WTYRBBogg5OO0L-fVW-1" target="c3WTYRBBogg5OO0L-fVW-22">
          <mxGeometry relative="1" as="geometry">
            <Array as="points">
              <mxPoint x="520" y="406" />
              <mxPoint x="520" y="390" />
              <mxPoint x="390" y="390" />
              <mxPoint x="390" y="407" />
            </Array>
          </mxGeometry>
        </mxCell>
        <mxCell id="c3WTYRBBogg5OO0L-fVW-27" style="edgeStyle=orthogonalEdgeStyle;rounded=0;orthogonalLoop=1;jettySize=auto;html=1;exitX=1;exitY=0.7;exitDx=0;exitDy=0;entryX=-0.001;entryY=0.758;entryDx=0;entryDy=0;entryPerimeter=0;curved=1;strokeWidth=2;" edge="1" parent="1" source="c3WTYRBBogg5OO0L-fVW-22" target="c3WTYRBBogg5OO0L-fVW-1">
          <mxGeometry relative="1" as="geometry">
            <Array as="points">
              <mxPoint x="390" y="434" />
              <mxPoint x="390" y="450" />
              <mxPoint x="520" y="450" />
              <mxPoint x="520" y="434" />
            </Array>
          </mxGeometry>
        </mxCell>
        <mxCell id="c3WTYRBBogg5OO0L-fVW-49" style="edgeStyle=orthogonalEdgeStyle;rounded=0;orthogonalLoop=1;jettySize=auto;html=1;exitX=0;exitY=0.301;exitDx=0;exitDy=0;exitPerimeter=0;entryX=1;entryY=0.5;entryDx=0;entryDy=0;strokeWidth=2;curved=1;" edge="1" parent="1" source="c3WTYRBBogg5OO0L-fVW-29" target="c3WTYRBBogg5OO0L-fVW-10">
          <mxGeometry relative="1" as="geometry" />
        </mxCell>
        <mxCell id="c3WTYRBBogg5OO0L-fVW-29" value="Регистрация прогулов" style="shape=mxgraph.bpmn.data2;labelPosition=center;verticalLabelPosition=bottom;align=center;verticalAlign=top;size=15;html=1;fillColor=#dae8fc;strokeColor=#6c8ebf;strokeWidth=2;" vertex="1" parent="1">
          <mxGeometry x="1020" y="376" width="65" height="76" as="geometry" />
        </mxCell>
        <mxCell id="c3WTYRBBogg5OO0L-fVW-31" value="Регистр накопления&lt;br&gt;&quot;Заказы&quot;" style="shape=datastore;html=1;labelPosition=center;verticalLabelPosition=bottom;align=center;verticalAlign=top;fillColor=#f8cecc;strokeColor=#b85450;strokeWidth=2;" vertex="1" parent="1">
          <mxGeometry x="252.5" y="550" width="100" height="100" as="geometry" />
        </mxCell>
        <mxCell id="c3WTYRBBogg5OO0L-fVW-51" style="edgeStyle=orthogonalEdgeStyle;rounded=0;orthogonalLoop=1;jettySize=auto;html=1;exitX=0;exitY=0.5;exitDx=0;exitDy=0;exitPerimeter=0;entryX=1;entryY=0.7;entryDx=0;entryDy=0;curved=1;strokeWidth=2;" edge="1" parent="1" source="c3WTYRBBogg5OO0L-fVW-32" target="c3WTYRBBogg5OO0L-fVW-31">
          <mxGeometry relative="1" as="geometry" />
        </mxCell>
        <mxCell id="c3WTYRBBogg5OO0L-fVW-32" value="Заказы" style="shape=mxgraph.bpmn.data2;labelPosition=center;verticalLabelPosition=bottom;align=center;verticalAlign=top;size=15;html=1;fillColor=#f8cecc;strokeColor=#b85450;strokeWidth=2;" vertex="1" parent="1">
          <mxGeometry x="552" y="562" width="65" height="76" as="geometry" />
        </mxCell>
        <mxCell id="c3WTYRBBogg5OO0L-fVW-50" style="edgeStyle=orthogonalEdgeStyle;rounded=1;orthogonalLoop=1;jettySize=auto;html=1;exitX=1;exitY=0.5;exitDx=0;exitDy=0;entryX=1;entryY=0.7;entryDx=0;entryDy=0;curved=1;strokeWidth=2;" edge="1" parent="1" source="c3WTYRBBogg5OO0L-fVW-39" target="c3WTYRBBogg5OO0L-fVW-10">
          <mxGeometry relative="1" as="geometry">
            <Array as="points">
              <mxPoint x="970" y="600" />
              <mxPoint x="970" y="434" />
            </Array>
          </mxGeometry>
        </mxCell>
        <mxCell id="c3WTYRBBogg5OO0L-fVW-39" value="Регистр сведений&lt;div&gt;&quot;Графики работы&quot;&lt;/div&gt;" style="shape=datastore;html=1;labelPosition=center;verticalLabelPosition=bottom;align=center;verticalAlign=top;fillColor=#dae8fc;strokeColor=#6c8ebf;strokeWidth=2;" vertex="1" parent="1">
          <mxGeometry x="822.5" y="550" width="100" height="100" as="geometry" />
        </mxCell>
        <mxCell id="c3WTYRBBogg5OO0L-fVW-41" style="edgeStyle=orthogonalEdgeStyle;rounded=0;orthogonalLoop=1;jettySize=auto;html=1;exitX=0;exitY=0.5;exitDx=0;exitDy=0;exitPerimeter=0;entryX=0.696;entryY=0;entryDx=0;entryDy=0;entryPerimeter=0;curved=1;strokeWidth=2;" edge="1" parent="1" source="c3WTYRBBogg5OO0L-fVW-3" target="c3WTYRBBogg5OO0L-fVW-2">
          <mxGeometry relative="1" as="geometry" />
        </mxCell>
        <mxCell id="c3WTYRBBogg5OO0L-fVW-42" style="edgeStyle=orthogonalEdgeStyle;rounded=0;orthogonalLoop=1;jettySize=auto;html=1;exitX=0;exitY=0;exitDx=65;exitDy=45.5;exitPerimeter=0;entryX=0.302;entryY=0;entryDx=0;entryDy=0;entryPerimeter=0;curved=1;strokeWidth=2;" edge="1" parent="1" source="c3WTYRBBogg5OO0L-fVW-4" target="c3WTYRBBogg5OO0L-fVW-2">
          <mxGeometry relative="1" as="geometry" />
        </mxCell>
        <mxCell id="c3WTYRBBogg5OO0L-fVW-44" value="Регистр сведений&lt;div&gt;&quot;Премии сотрудников&quot;&lt;/div&gt;" style="shape=datastore;html=1;labelPosition=center;verticalLabelPosition=bottom;align=center;verticalAlign=top;fillColor=#dae8fc;strokeColor=#6c8ebf;strokeWidth=2;" vertex="1" parent="1">
          <mxGeometry x="252.5" y="170" width="100" height="100" as="geometry" />
        </mxCell>
        <mxCell id="c3WTYRBBogg5OO0L-fVW-47" style="edgeStyle=orthogonalEdgeStyle;rounded=0;orthogonalLoop=1;jettySize=auto;html=1;exitX=0;exitY=0.5;exitDx=0;exitDy=0;entryX=0.697;entryY=-0.004;entryDx=0;entryDy=0;entryPerimeter=0;curved=1;strokeWidth=2;" edge="1" parent="1" source="c3WTYRBBogg5OO0L-fVW-2" target="c3WTYRBBogg5OO0L-fVW-1">
          <mxGeometry relative="1" as="geometry" />
        </mxCell>
        <mxCell id="c3WTYRBBogg5OO0L-fVW-48" style="edgeStyle=orthogonalEdgeStyle;rounded=0;orthogonalLoop=1;jettySize=auto;html=1;exitX=1;exitY=0.5;exitDx=0;exitDy=0;entryX=0.298;entryY=-0.004;entryDx=0;entryDy=0;entryPerimeter=0;curved=1;strokeWidth=2;" edge="1" parent="1" source="c3WTYRBBogg5OO0L-fVW-44" target="c3WTYRBBogg5OO0L-fVW-1">
          <mxGeometry relative="1" as="geometry" />
        </mxCell>
        <mxCell id="c3WTYRBBogg5OO0L-fVW-52" style="edgeStyle=orthogonalEdgeStyle;rounded=0;orthogonalLoop=1;jettySize=auto;html=1;exitX=1;exitY=0.3;exitDx=0;exitDy=0;entryX=0.5;entryY=1;entryDx=0;entryDy=0;entryPerimeter=0;curved=1;strokeWidth=2;" edge="1" parent="1" source="c3WTYRBBogg5OO0L-fVW-31" target="c3WTYRBBogg5OO0L-fVW-1">
          <mxGeometry relative="1" as="geometry" />
        </mxCell>
      </root>
    </mxGraphModel>
  </diagram>
</mxfile>
